G04 Layer: TopLayer*
G04 EasyEDA v6.4.17, 2021-03-19T16:44:36--7:00*
G04 2dc819ba9ea4424db49a2a786f0bdddf,d6c3d315a7ad4e81bc1a44f6c2ba7827,10*
G04 Gerber Generator version 0.2*
G04 Scale: 100 percent, Rotated: No, Reflected: No *
G04 Dimensions in millimeters *
G04 leading zeros omitted , absolute positions ,4 integer and 5 decimal *
%FSLAX45Y45*%
%MOMM*%

%ADD10C,0.2540*%
%ADD11C,1.0000*%
%ADD12C,0.6096*%
%ADD13C,0.6100*%
%ADD16R,0.9000X0.8000*%
%ADD17R,1.3770X1.1325*%
%ADD22R,1.5500X0.6500*%
%ADD23C,1.5240*%

%LPD*%
G36*
X1752600Y15455900D02*
G01*
X1725675Y15428976D01*
X1724202Y15428976D01*
X1752600Y15417800D01*
X1763775Y15428976D01*
X2004212Y15428976D01*
X1977288Y15455900D01*
G37*
G36*
X2013407Y14959025D02*
G01*
X2005787Y14905939D01*
X2007717Y14904008D01*
X2068423Y14904008D01*
G37*
G36*
X2179980Y14904974D02*
G01*
X2179980Y14769947D01*
X2214981Y14769947D01*
X2245004Y14779955D01*
X2245004Y14839950D01*
G37*
G36*
X1726387Y15020239D02*
G01*
X1624787Y14918639D01*
X1573987Y14918639D01*
X1641297Y14886635D01*
X1644091Y14886635D01*
X1650187Y14880539D01*
X1651457Y14880539D01*
X1675587Y14855139D01*
X1675587Y14835479D01*
X1695653Y14815413D01*
X1695653Y14746224D01*
X1693418Y14743988D01*
X1723389Y14743988D01*
X1723389Y14890242D01*
X1726387Y14893239D01*
G37*
G36*
X1650187Y14690039D02*
G01*
X1624787Y14664639D01*
X1891487Y14664639D01*
X1891487Y14690039D01*
G37*
G36*
X1650187Y14639239D02*
G01*
X1751787Y14537639D01*
X1891588Y14535454D01*
X1891487Y14639239D01*
G37*
G36*
X2179980Y14659965D02*
G01*
X2179980Y14534946D01*
X2245004Y14599970D01*
X2245004Y14649957D01*
X2234996Y14649957D01*
X2210003Y14659965D01*
G37*
D11*
X2235009Y13191185D02*
G01*
X2243236Y13199414D01*
X2514793Y13199414D01*
D10*
X2102093Y14715436D02*
G01*
X1654853Y14715436D01*
X1591353Y14778936D01*
X1574002Y14778936D01*
X1923889Y15316205D02*
G01*
X1913900Y15306220D01*
X1913900Y15062205D01*
X1914047Y14715436D02*
G01*
X1914047Y15045430D01*
X1897278Y15062200D01*
X2933700Y13750292D02*
G01*
X2933700Y13746378D01*
X2971800Y13708278D01*
X2921000Y13657478D01*
X2921000Y13525500D01*
X2063899Y15316205D02*
G01*
X2073909Y15306207D01*
X2073909Y15062205D01*
X2646113Y14588431D02*
G01*
X2683568Y14588431D01*
X2946097Y14293588D01*
X2946097Y14293588D01*
X2090521Y15062200D02*
G01*
X2090521Y15062200D01*
X2159000Y14986000D01*
X2556568Y14588431D01*
X2646113Y14588431D01*
X3378200Y14046200D02*
G01*
X3371700Y14052699D01*
X3371700Y14198600D01*
X3371697Y14198600D02*
G01*
X3302000Y14198600D01*
X3226048Y14198600D01*
X3511699Y14198600D02*
G01*
X3517900Y14192399D01*
X3517900Y14046200D01*
X2844800Y14865502D02*
G01*
X2990697Y14865502D01*
X2997200Y14859000D01*
X2646103Y14461436D02*
G01*
X2654302Y14453237D01*
X2654302Y14325600D01*
X2946090Y14198600D02*
G01*
X2857500Y14198600D01*
X2794000Y14135100D01*
X3226109Y14293595D02*
G01*
X3054405Y14465300D01*
X2959100Y14465300D01*
X2646113Y14715431D02*
G01*
X2649984Y14719300D01*
X3009900Y14719300D01*
D11*
X2211905Y13399665D02*
G01*
X2225771Y13385800D01*
X2514605Y13385800D01*
D10*
X2971800Y13901521D02*
G01*
X2789021Y13901521D01*
X2730500Y13843000D01*
X2730500Y13119100D01*
X2602235Y12993370D01*
X2222251Y12993370D01*
X2946102Y14103598D02*
G01*
X2921000Y14078496D01*
X2921000Y13901521D01*
X2971800Y13901521D01*
X3226054Y14103604D02*
G01*
X3251200Y14103604D01*
X3251200Y13901420D01*
X3200400Y13901420D01*
X2921000Y13525500D02*
G01*
X3111500Y13525500D01*
X3200400Y13614400D01*
X3200400Y13708278D01*
X3200400Y13901521D02*
G01*
X3200400Y13804900D01*
X3200400Y13804900D02*
G01*
X2870200Y13804900D01*
X2819400Y13754100D01*
X2819400Y13068300D01*
X2540000Y12788900D01*
X2222245Y12788900D01*
X2222245Y12793471D01*
G36*
X2026399Y15248699D02*
G01*
X2026399Y15383700D01*
X2167399Y15383700D01*
X2167399Y15248699D01*
G37*
G36*
X1961400Y15248699D02*
G01*
X1961400Y15383700D01*
X1820400Y15383700D01*
X1820400Y15248699D01*
G37*
G36*
X3471699Y14243601D02*
G01*
X3551699Y14243601D01*
X3551699Y14153598D01*
X3471699Y14153598D01*
G37*
G36*
X3331700Y14243601D02*
G01*
X3411700Y14243601D01*
X3411700Y14153598D01*
X3331700Y14153598D01*
G37*
D16*
G01*
X2844800Y14725497D03*
G01*
X2844800Y14865502D03*
G36*
X3040649Y13844899D02*
G01*
X2902950Y13844899D01*
X2902950Y13958153D01*
X3040649Y13958153D01*
G37*
D17*
G01*
X2971800Y13708278D03*
G36*
X3269249Y13844899D02*
G01*
X3131550Y13844899D01*
X3131550Y13958153D01*
X3269249Y13958153D01*
G37*
G01*
X3200400Y13708278D03*
G36*
X1953900Y15131049D02*
G01*
X1953900Y14993350D01*
X1840646Y14993350D01*
X1840646Y15131049D01*
G37*
G36*
X2033899Y15131049D02*
G01*
X2033899Y14993350D01*
X2147153Y14993350D01*
X2147153Y15131049D01*
G37*
G36*
X2896123Y14131071D02*
G01*
X2996123Y14131071D01*
X2996123Y14076070D01*
X2896123Y14076070D01*
G37*
G36*
X2896123Y14226067D02*
G01*
X2996123Y14226067D01*
X2996123Y14171066D01*
X2896123Y14171066D01*
G37*
G36*
X2896123Y14321063D02*
G01*
X2996123Y14321063D01*
X2996123Y14266062D01*
X2896123Y14266062D01*
G37*
G36*
X3176132Y14321063D02*
G01*
X3276132Y14321063D01*
X3276132Y14266062D01*
X3176132Y14266062D01*
G37*
G36*
X3176132Y14226067D02*
G01*
X3276132Y14226067D01*
X3276132Y14171066D01*
X3176132Y14171066D01*
G37*
G36*
X3176132Y14131071D02*
G01*
X3276132Y14131071D01*
X3276132Y14076070D01*
X3176132Y14076070D01*
G37*
G36*
X2112213Y12853390D02*
G01*
X2332177Y12853390D01*
X2332177Y12733502D01*
X2112213Y12733502D01*
G37*
G36*
X2112213Y13053288D02*
G01*
X2332177Y13053288D01*
X2332177Y12933400D01*
X2112213Y12933400D01*
G37*
G36*
X2112213Y13253440D02*
G01*
X2332177Y13253440D01*
X2332177Y13133552D01*
X2112213Y13133552D01*
G37*
G36*
X2112213Y13453338D02*
G01*
X2332177Y13453338D01*
X2332177Y13333450D01*
X2112213Y13333450D01*
G37*
G36*
X1454099Y12534112D02*
G01*
X1874215Y12534112D01*
X1874215Y12333960D01*
X1454099Y12333960D01*
G37*
G36*
X1454099Y13853601D02*
G01*
X1874215Y13853601D01*
X1874215Y13653449D01*
X1454099Y13653449D01*
G37*
D22*
G01*
X2102129Y14842489D03*
G01*
X2102129Y14715489D03*
G01*
X2102129Y14588489D03*
G01*
X2102129Y14461489D03*
G01*
X2646146Y14461489D03*
G01*
X2646146Y14588489D03*
G01*
X2646146Y14715489D03*
G01*
X2646146Y14842489D03*
D10*
G75*
G01*
X1698874Y14755769D02*
G03*
X1650205Y14677332I-124870J23162D01*
G36*
X1724202Y15430500D02*
G01*
X1993900Y15430500D01*
X1993900Y15405100D01*
X1724202Y15405100D01*
G37*
G36*
X1724202Y15408960D02*
G01*
X1799209Y15408960D01*
X1799209Y14888971D01*
X1724202Y14888971D01*
G37*
G36*
X1944192Y15228976D02*
G01*
X2044191Y15228976D01*
X2044191Y15148966D01*
X1944192Y15148966D01*
G37*
G36*
X1984197Y15408376D02*
G01*
X2004212Y15408376D01*
X2004212Y15228468D01*
X1984197Y15228468D01*
G37*
G36*
X1974189Y15149271D02*
G01*
X2014194Y15149271D01*
X2014194Y14973960D01*
X1974189Y14973960D01*
G37*
G36*
X1943100Y14973960D02*
G01*
X2014194Y14973960D01*
X2014194Y14820900D01*
X1943100Y14820900D01*
G37*
G36*
X1942312Y14791639D02*
G01*
X2004999Y14791639D01*
X2004999Y14744979D01*
X1942312Y14744979D01*
G37*
G36*
X2199995Y14779980D02*
G01*
X2245004Y14779980D01*
X2245004Y14649983D01*
X2199995Y14649983D01*
G37*
G36*
X1942312Y14905939D02*
G01*
X2180005Y14905939D01*
X2180005Y14769972D01*
X1942312Y14769972D01*
G37*
G36*
X1799209Y14973960D02*
G01*
X1884197Y14973960D01*
X1884197Y14888971D01*
X1799209Y14888971D01*
G37*
G36*
X1798701Y15228976D02*
G01*
X1884197Y15228976D01*
X1884197Y15148966D01*
X1798701Y15148966D01*
G37*
G36*
X1796897Y15149271D02*
G01*
X1819198Y15149271D01*
X1819198Y14973477D01*
X1796897Y14973477D01*
G37*
G36*
X1984197Y15428976D02*
G01*
X2004187Y15428976D01*
X2004187Y15398978D01*
X1984197Y15398978D01*
G37*
G36*
X1723389Y14973985D02*
G01*
X1883384Y14973985D01*
X1883384Y14743988D01*
X1723389Y14743988D01*
G37*
G36*
X1574012Y14664639D02*
G01*
X1891512Y14664639D01*
X1891512Y14639239D01*
X1574012Y14639239D01*
G37*
G36*
X1889988Y14689962D02*
G01*
X2004999Y14689962D01*
X2004999Y14654961D01*
X1889988Y14654961D01*
G37*
G36*
X1891512Y14659965D02*
G01*
X2180005Y14659965D01*
X2180005Y14534972D01*
X1891512Y14534972D01*
G37*
D23*
G01*
X1574012Y14778939D03*
G01*
X1574012Y14524939D03*
D12*
G01*
X1752498Y14981859D03*
G01*
X2997200Y14859000D03*
G01*
X2654300Y14325600D03*
G01*
X1930400Y14592300D03*
D13*
G01*
X2959100Y14465300D03*
G01*
X2794000Y14135100D03*
G01*
X3517900Y14046200D03*
G01*
X3378200Y14046200D03*
G01*
X2921000Y13525500D03*
D11*
G01*
X2514803Y13199414D03*
D13*
G01*
X3009900Y14719300D03*
D11*
G01*
X2514600Y13385800D03*
M02*
