G04 Layer: TopSilkLayer*
G04 EasyEDA v6.4.17, 2021-03-19T16:44:36--7:00*
G04 2dc819ba9ea4424db49a2a786f0bdddf,d6c3d315a7ad4e81bc1a44f6c2ba7827,10*
G04 Gerber Generator version 0.2*
G04 Scale: 100 percent, Rotated: No, Reflected: No *
G04 Dimensions in millimeters *
G04 leading zeros omitted , absolute positions ,4 integer and 5 decimal *
%FSLAX45Y45*%
%MOMM*%

%ADD10C,0.2540*%
%ADD24C,0.1524*%
%ADD25C,0.3000*%

%LPD*%
G36*
X366674Y14143736D02*
G01*
X362305Y14143024D01*
X358089Y14141399D01*
X354685Y14139367D01*
X351993Y14137030D01*
X349961Y14134033D01*
X348437Y14130121D01*
X347421Y14125041D01*
X346811Y14118437D01*
X346405Y14099489D01*
X346710Y14081201D01*
X347268Y14074901D01*
X348132Y14070076D01*
X349453Y14066367D01*
X351332Y14063522D01*
X353771Y14061186D01*
X356920Y14059052D01*
X360984Y14057172D01*
X365252Y14056207D01*
X369620Y14056106D01*
X373888Y14056817D01*
X377952Y14058341D01*
X381609Y14060627D01*
X384759Y14063624D01*
X387197Y14067332D01*
X388010Y14069872D01*
X388721Y14073886D01*
X389636Y14085163D01*
X389940Y14098930D01*
X389737Y14112748D01*
X388874Y14124432D01*
X388213Y14128750D01*
X387451Y14131645D01*
X385318Y14135354D01*
X382473Y14138503D01*
X379069Y14140942D01*
X375158Y14142669D01*
X370992Y14143634D01*
G37*
G36*
X529132Y14077492D02*
G01*
X526796Y14077238D01*
X524103Y14076527D01*
X521462Y14075562D01*
X519125Y14074343D01*
X515721Y14071650D01*
X503428Y14060220D01*
X485952Y14042542D01*
X480415Y14036040D01*
X477926Y14031417D01*
X476961Y14026540D01*
X476859Y14021054D01*
X477824Y14016126D01*
X479704Y14011859D01*
X482447Y14008303D01*
X486003Y14005509D01*
X490321Y14003629D01*
X495249Y14002715D01*
X500735Y14002816D01*
X505612Y14003782D01*
X510336Y14006372D01*
X516991Y14012163D01*
X534619Y14029486D01*
X544220Y14039799D01*
X547268Y14043660D01*
X549402Y14046911D01*
X550773Y14049806D01*
X551434Y14052550D01*
X551637Y14055293D01*
X549605Y14063116D01*
X544271Y14070228D01*
X537057Y14075460D01*
G37*
G36*
X207822Y14077492D02*
G01*
X204470Y14077238D01*
X201015Y14076578D01*
X197866Y14075613D01*
X195275Y14074343D01*
X191262Y14070888D01*
X187858Y14066113D01*
X185470Y14060779D01*
X184556Y14055801D01*
X184810Y14052905D01*
X185775Y14049857D01*
X187452Y14046555D01*
X189890Y14042898D01*
X193243Y14038732D01*
X202895Y14028572D01*
X216204Y14016024D01*
X221894Y14011046D01*
X226567Y14007338D01*
X230581Y14004798D01*
X234086Y14003223D01*
X237388Y14002461D01*
X240588Y14002512D01*
X244043Y14003172D01*
X246176Y14004036D01*
X248818Y14005560D01*
X251561Y14007592D01*
X254050Y14009827D01*
X256997Y14013078D01*
X258673Y14015974D01*
X259435Y14019428D01*
X259638Y14024305D01*
X259638Y14033144D01*
X230225Y14062506D01*
X220421Y14071904D01*
X217220Y14074597D01*
X214680Y14076222D01*
X212496Y14077086D01*
X210312Y14077442D01*
G37*
G36*
X366623Y14015618D02*
G01*
X357327Y14014805D01*
X345897Y14013078D01*
X339953Y14011859D01*
X334162Y14010386D01*
X322986Y14006525D01*
X317601Y14004137D01*
X312318Y14001496D01*
X302107Y13995247D01*
X297180Y13991691D01*
X292303Y13987830D01*
X287528Y13983665D01*
X282854Y13979194D01*
X278282Y13974419D01*
X274015Y13969542D01*
X270103Y13964666D01*
X266547Y13959687D01*
X263296Y13954556D01*
X260350Y13949375D01*
X257708Y13944041D01*
X255371Y13938554D01*
X253339Y13932916D01*
X251561Y13927074D01*
X250037Y13921028D01*
X247802Y13908532D01*
X246583Y13898422D01*
X246465Y13892936D01*
X290474Y13892936D01*
X290677Y13899032D01*
X291388Y13905230D01*
X292404Y13910665D01*
X293827Y13915948D01*
X295605Y13921079D01*
X297688Y13926057D01*
X300126Y13930833D01*
X302818Y13935405D01*
X305866Y13939723D01*
X309168Y13943888D01*
X312775Y13947800D01*
X316585Y13951457D01*
X320700Y13954861D01*
X325018Y13958011D01*
X329539Y13960856D01*
X334264Y13963446D01*
X339242Y13965682D01*
X344373Y13967663D01*
X349656Y13969288D01*
X355092Y13970609D01*
X360680Y13971574D01*
X366420Y13972184D01*
X371398Y13971778D01*
X379780Y13970660D01*
X385876Y13969441D01*
X391820Y13967764D01*
X397560Y13965580D01*
X403098Y13962938D01*
X408381Y13959890D01*
X413410Y13956487D01*
X418185Y13952626D01*
X422656Y13948460D01*
X426821Y13943990D01*
X430631Y13939164D01*
X434035Y13934084D01*
X437083Y13928750D01*
X439674Y13923162D01*
X441858Y13917371D01*
X443585Y13911376D01*
X444804Y13905230D01*
X445465Y13899845D01*
X445719Y13894562D01*
X445566Y13889278D01*
X445058Y13884097D01*
X444195Y13879017D01*
X443026Y13874038D01*
X441502Y13869162D01*
X439623Y13864437D01*
X437489Y13859814D01*
X435051Y13855395D01*
X429361Y13847013D01*
X426110Y13843101D01*
X422656Y13839444D01*
X418947Y13835938D01*
X410972Y13829741D01*
X406704Y13827048D01*
X402234Y13824610D01*
X397662Y13822426D01*
X392887Y13820597D01*
X388010Y13819073D01*
X383032Y13817854D01*
X377952Y13816990D01*
X372770Y13816482D01*
X367538Y13816380D01*
X362204Y13816584D01*
X356819Y13817244D01*
X350621Y13818514D01*
X344576Y13820190D01*
X338785Y13822375D01*
X333248Y13824966D01*
X327914Y13828013D01*
X322884Y13831366D01*
X318160Y13835126D01*
X313740Y13839190D01*
X309626Y13843609D01*
X305866Y13848232D01*
X302463Y13853160D01*
X299466Y13858341D01*
X296875Y13863726D01*
X294690Y13869263D01*
X292963Y13875004D01*
X291642Y13880846D01*
X290830Y13886840D01*
X290474Y13892936D01*
X246465Y13892936D01*
X247040Y13884757D01*
X248818Y13873124D01*
X250037Y13866876D01*
X251561Y13860830D01*
X253339Y13855039D01*
X255371Y13849400D01*
X257708Y13843914D01*
X260350Y13838580D01*
X263296Y13833348D01*
X266547Y13828268D01*
X270103Y13823289D01*
X274015Y13818362D01*
X278282Y13813536D01*
X282854Y13808760D01*
X287985Y13803833D01*
X293268Y13799312D01*
X298704Y13795146D01*
X304241Y13791336D01*
X309930Y13787932D01*
X315823Y13784884D01*
X321868Y13782141D01*
X328117Y13779754D01*
X334568Y13777722D01*
X341274Y13775994D01*
X348183Y13774623D01*
X355346Y13773556D01*
X363778Y13772642D01*
X370789Y13772489D01*
X378002Y13773048D01*
X386994Y13774419D01*
X399948Y13777163D01*
X406044Y13778941D01*
X411886Y13781024D01*
X417525Y13783310D01*
X423011Y13785951D01*
X428294Y13788898D01*
X433476Y13792149D01*
X438556Y13795756D01*
X443534Y13799718D01*
X448462Y13804036D01*
X458317Y13813942D01*
X462838Y13819174D01*
X466902Y13824407D01*
X470611Y13829792D01*
X473964Y13835329D01*
X476961Y13841120D01*
X479704Y13847216D01*
X482193Y13853668D01*
X484124Y13859408D01*
X487019Y13870889D01*
X488035Y13876629D01*
X488746Y13882420D01*
X489305Y13893901D01*
X489204Y13899591D01*
X488086Y13910868D01*
X485952Y13921994D01*
X484479Y13927429D01*
X480720Y13938097D01*
X478535Y13943279D01*
X476046Y13948410D01*
X470357Y13958265D01*
X463753Y13967612D01*
X460146Y13972082D01*
X452170Y13980515D01*
X443382Y13988338D01*
X433730Y13995400D01*
X428599Y13998651D01*
X423316Y14001648D01*
X417830Y14004442D01*
X412140Y14007033D01*
X407771Y14008607D01*
X402437Y14010182D01*
X389890Y14012976D01*
X377088Y14014957D01*
X371398Y14015466D01*
G37*
G36*
X162509Y13915644D02*
G01*
X148539Y13915542D01*
X139344Y13915085D01*
X133502Y13914221D01*
X129489Y13912748D01*
X124460Y13909141D01*
X120954Y13904468D01*
X118872Y13899032D01*
X118313Y13893241D01*
X119176Y13887551D01*
X121462Y13882268D01*
X125222Y13877848D01*
X130403Y13874648D01*
X133299Y13873835D01*
X137566Y13873175D01*
X149250Y13872362D01*
X163118Y13872108D01*
X176834Y13872463D01*
X182930Y13872819D01*
X188163Y13873378D01*
X192176Y13874038D01*
X194716Y13874851D01*
X198374Y13877290D01*
X201371Y13880439D01*
X203657Y13884097D01*
X205232Y13888161D01*
X205943Y13892428D01*
X205841Y13896797D01*
X204876Y13901064D01*
X202946Y13905128D01*
X200812Y13908278D01*
X198475Y13910716D01*
X195630Y13912596D01*
X191973Y13913916D01*
X187147Y13914780D01*
X180848Y13915339D01*
G37*
G36*
X559155Y13915440D02*
G01*
X549605Y13915136D01*
X544169Y13914221D01*
X540461Y13912443D01*
X534162Y13906550D01*
X530707Y13899032D01*
X530301Y13890802D01*
X533247Y13882776D01*
X535432Y13879525D01*
X537870Y13876985D01*
X540816Y13875105D01*
X544626Y13873784D01*
X549706Y13872972D01*
X556361Y13872565D01*
X575868Y13872565D01*
X595579Y13873327D01*
X602132Y13874089D01*
X607009Y13875257D01*
X610514Y13877036D01*
X613054Y13879474D01*
X614984Y13882776D01*
X616712Y13887043D01*
X617880Y13890904D01*
X618286Y13893952D01*
X617880Y13897000D01*
X616712Y13900912D01*
X614984Y13905179D01*
X613054Y13908430D01*
X610514Y13910919D01*
X606958Y13912697D01*
X602030Y13913866D01*
X595376Y13914577D01*
X586587Y13915034D01*
G37*
G36*
X239521Y13785342D02*
G01*
X235204Y13785189D01*
X230987Y13784224D01*
X227075Y13782344D01*
X223012Y13779246D01*
X217576Y13774369D01*
X204876Y13761618D01*
X198628Y13754862D01*
X193243Y13748613D01*
X189230Y13743482D01*
X187045Y13739977D01*
X185775Y13735608D01*
X185521Y13731290D01*
X186182Y13727176D01*
X187655Y13723264D01*
X189839Y13719708D01*
X192582Y13716558D01*
X195834Y13714018D01*
X199491Y13712088D01*
X203403Y13710919D01*
X207517Y13710564D01*
X211734Y13711174D01*
X215900Y13712799D01*
X219151Y13715238D01*
X231648Y13726718D01*
X239369Y13734288D01*
X249885Y13745057D01*
X255676Y13751763D01*
X258267Y13756487D01*
X259232Y13761364D01*
X259486Y13765326D01*
X259232Y13768781D01*
X258470Y13771880D01*
X257149Y13774826D01*
X254711Y13778280D01*
X251561Y13781125D01*
X247853Y13783259D01*
X243789Y13784681D01*
G37*
G36*
X495300Y13785138D02*
G01*
X491743Y13784834D01*
X488797Y13784021D01*
X486257Y13782751D01*
X481685Y13778788D01*
X478586Y13773861D01*
X477012Y13767968D01*
X476961Y13761364D01*
X477926Y13756487D01*
X480517Y13751763D01*
X486308Y13745057D01*
X496824Y13734288D01*
X511556Y13720114D01*
X517042Y13715238D01*
X520293Y13712799D01*
X528370Y13710564D01*
X536549Y13711631D01*
X543712Y13715796D01*
X548894Y13722604D01*
X550672Y13727074D01*
X551535Y13731189D01*
X551230Y13735253D01*
X549656Y13739622D01*
X546658Y13744448D01*
X542086Y13750188D01*
X535736Y13757046D01*
X516432Y13776350D01*
X509778Y13782090D01*
X505053Y13784326D01*
X499618Y13784986D01*
G37*
G36*
X368096Y13732103D02*
G01*
X365404Y13731849D01*
X362407Y13731138D01*
X359460Y13730122D01*
X356920Y13728852D01*
X353669Y13726668D01*
X351129Y13724229D01*
X349250Y13721283D01*
X347929Y13717473D01*
X347116Y13712393D01*
X346710Y13705738D01*
X346710Y13686231D01*
X347421Y13666520D01*
X348183Y13659967D01*
X349402Y13655090D01*
X351180Y13651585D01*
X353618Y13649045D01*
X356920Y13647115D01*
X361137Y13645438D01*
X365048Y13644219D01*
X368096Y13643813D01*
X371144Y13644219D01*
X375056Y13645438D01*
X379272Y13647115D01*
X382574Y13649045D01*
X385013Y13651585D01*
X386791Y13655090D01*
X388010Y13659967D01*
X388772Y13666520D01*
X389229Y13675156D01*
X389636Y13701115D01*
X389382Y13710716D01*
X388670Y13716609D01*
X387299Y13720419D01*
X383895Y13725042D01*
X379222Y13728750D01*
X373786Y13731240D01*
G37*
D25*
X711200Y13919962D02*
G01*
X711200Y13827505D01*
X720344Y13799820D01*
X738886Y13790676D01*
X766571Y13790676D01*
X785113Y13799820D01*
X812800Y13827505D01*
X812800Y13919962D02*
G01*
X812800Y13790676D01*
X873760Y13984478D02*
G01*
X873760Y13790676D01*
X873760Y13790676D02*
G01*
X984504Y13790676D01*
X1045463Y13984478D02*
G01*
X1045463Y13790676D01*
X1045463Y13984478D02*
G01*
X1119378Y13790676D01*
X1193292Y13984478D02*
G01*
X1119378Y13790676D01*
X1193292Y13984478D02*
G01*
X1193292Y13790676D01*
D24*
X1015992Y14682208D02*
G01*
X1015992Y14573242D01*
X1015992Y14682208D02*
G01*
X1062728Y14682208D01*
X1078222Y14677128D01*
X1083556Y14671794D01*
X1088636Y14661380D01*
X1088636Y14645886D01*
X1083556Y14635472D01*
X1078222Y14630392D01*
X1062728Y14625058D01*
X1015992Y14625058D01*
X1122926Y14682208D02*
G01*
X1122926Y14573242D01*
X1122926Y14682208D02*
G01*
X1159502Y14682208D01*
X1174996Y14677128D01*
X1185410Y14666714D01*
X1190490Y14656300D01*
X1195824Y14640552D01*
X1195824Y14614644D01*
X1190490Y14599150D01*
X1185410Y14588736D01*
X1174996Y14578322D01*
X1159502Y14573242D01*
X1122926Y14573242D01*
X3089656Y14504416D02*
G01*
X3048000Y14395450D01*
X3089656Y14504416D02*
G01*
X3131058Y14395450D01*
X3063493Y14431771D02*
G01*
X3115563Y14431771D01*
X3165347Y14504416D02*
G01*
X3165347Y14395450D01*
X3165347Y14504416D02*
G01*
X3201670Y14504416D01*
X3217418Y14499336D01*
X3227831Y14488921D01*
X3232911Y14478507D01*
X3238245Y14462760D01*
X3238245Y14436852D01*
X3232911Y14421357D01*
X3227831Y14410944D01*
X3217418Y14400529D01*
X3201670Y14395450D01*
X3165347Y14395450D01*
X3350259Y14478507D02*
G01*
X3345179Y14488921D01*
X3334765Y14499336D01*
X3324352Y14504416D01*
X3303524Y14504416D01*
X3293109Y14499336D01*
X3282950Y14488921D01*
X3277615Y14478507D01*
X3272536Y14462760D01*
X3272536Y14436852D01*
X3277615Y14421357D01*
X3282950Y14410944D01*
X3293109Y14400529D01*
X3303524Y14395450D01*
X3324352Y14395450D01*
X3334765Y14400529D01*
X3345179Y14410944D01*
X3350259Y14421357D01*
X2350770Y12574015D02*
G01*
X2350770Y12490958D01*
X2345436Y12475210D01*
X2340356Y12470129D01*
X2329941Y12465050D01*
X2319527Y12465050D01*
X2309113Y12470129D01*
X2303779Y12475210D01*
X2298700Y12490958D01*
X2298700Y12501371D01*
X2385059Y12553187D02*
G01*
X2395220Y12558521D01*
X2410968Y12574015D01*
X2410968Y12465050D01*
X2063267Y14339366D02*
G01*
X2052853Y14334032D01*
X2042439Y14323872D01*
X2037105Y14313458D01*
X2032025Y14297710D01*
X2032025Y14271802D01*
X2037105Y14256308D01*
X2042439Y14245894D01*
X2052853Y14235480D01*
X2063267Y14230146D01*
X2083841Y14230146D01*
X2094255Y14235480D01*
X2104669Y14245894D01*
X2110003Y14256308D01*
X2115083Y14271802D01*
X2115083Y14297710D01*
X2110003Y14313458D01*
X2104669Y14323872D01*
X2094255Y14334032D01*
X2083841Y14339366D01*
X2063267Y14339366D01*
X2149373Y14339366D02*
G01*
X2149373Y14230146D01*
X2149373Y14339366D02*
G01*
X2196109Y14339366D01*
X2211857Y14334032D01*
X2216937Y14328952D01*
X2222271Y14318538D01*
X2222271Y14303044D01*
X2216937Y14292630D01*
X2211857Y14287296D01*
X2196109Y14282216D01*
X2149373Y14282216D01*
X2297963Y14339366D02*
G01*
X2256561Y14230146D01*
X2297963Y14339366D02*
G01*
X2339619Y14230146D01*
X2272055Y14266722D02*
G01*
X2323871Y14266722D01*
X2373909Y14339366D02*
G01*
X2373909Y14230146D01*
X2373909Y14339366D02*
G01*
X2415311Y14230146D01*
X2456967Y14339366D02*
G01*
X2415311Y14230146D01*
X2456967Y14339366D02*
G01*
X2456967Y14230146D01*
X2491257Y14339366D02*
G01*
X2491257Y14230146D01*
X2491257Y14339366D02*
G01*
X2537993Y14339366D01*
X2553741Y14334032D01*
X2558821Y14328952D01*
X2563901Y14318538D01*
X2563901Y14303044D01*
X2558821Y14292630D01*
X2553741Y14287296D01*
X2537993Y14282216D01*
X2491257Y14282216D01*
X2175019Y15406560D02*
G01*
X2034019Y15406560D01*
X2034019Y15225839D02*
G01*
X2175019Y15225839D01*
X2190259Y15241079D02*
G01*
X2190259Y15391320D01*
X1812780Y15406560D02*
G01*
X1953780Y15406560D01*
X1953780Y15225839D02*
G01*
X1812780Y15225839D01*
X1797540Y15241079D02*
G01*
X1797540Y15391320D01*
D10*
X3580701Y14238577D02*
G01*
X3580701Y14158574D01*
X3469726Y14269562D02*
G01*
X3549723Y14269562D01*
X3469726Y14127596D02*
G01*
X3549723Y14127596D01*
X3412136Y14270144D02*
G01*
X3332137Y14270144D01*
X3301154Y14239161D02*
G01*
X3301154Y14159163D01*
X3412136Y14128183D02*
G01*
X3332137Y14128183D01*
X2884777Y14656498D02*
G01*
X2804774Y14656498D01*
X2915762Y14767473D02*
G01*
X2915762Y14687476D01*
X2773796Y14767473D02*
G01*
X2773796Y14687476D01*
X2916344Y14825063D02*
G01*
X2916344Y14905062D01*
X2885361Y14936045D02*
G01*
X2805363Y14936045D01*
X2774383Y14825063D02*
G01*
X2774383Y14905062D01*
D24*
X3063509Y13852519D02*
G01*
X3063509Y13981013D01*
X2880090Y13981013D01*
X2880090Y13852519D01*
X3063509Y13757280D02*
G01*
X3063509Y13628786D01*
X2880090Y13628786D01*
X2880090Y13757280D01*
X3292109Y13852519D02*
G01*
X3292109Y13981013D01*
X3108690Y13981013D01*
X3108690Y13852519D01*
X3292109Y13757280D02*
G01*
X3292109Y13628786D01*
X3108690Y13628786D01*
X3108690Y13757280D01*
X1946280Y15153909D02*
G01*
X1817786Y15153909D01*
X1817786Y14970490D01*
X1946280Y14970490D01*
X2041519Y15153909D02*
G01*
X2170013Y15153909D01*
X2170013Y14970490D01*
X2041519Y14970490D01*
D10*
X3176130Y14043568D02*
G01*
X2996128Y14043568D01*
X3176130Y14353570D02*
G01*
X2996128Y14353570D01*
X1440779Y13584224D02*
G01*
X1740778Y13584224D01*
X1740778Y13384230D01*
X1440779Y13384230D01*
X1442608Y12603231D02*
G01*
X1742602Y12603231D01*
X1742602Y12803230D01*
X1442608Y12803230D01*
X2222802Y12655524D02*
G01*
X2222802Y12642824D01*
X2045002Y12541224D01*
X2222802Y12465024D01*
X2222294Y12344026D02*
G01*
X2222294Y12710388D01*
X2222294Y12876504D02*
G01*
X2222294Y12910286D01*
X2222294Y13076402D02*
G01*
X2222294Y13110438D01*
X2222294Y13276554D02*
G01*
X2222294Y13310336D01*
X2222294Y13476452D02*
G01*
X2222294Y13843421D01*
X2222294Y13843421D02*
G01*
X1897329Y13843421D01*
X2222294Y12344026D02*
G01*
X1897329Y12344026D01*
X1440779Y13584224D02*
G01*
X1440779Y12603231D01*
X2419929Y14905989D02*
G01*
X2536697Y14905989D01*
X2536697Y14391990D01*
X2536697Y14391990D02*
G01*
X2213122Y14391990D01*
X2213122Y14391990D02*
G01*
X2213122Y14903450D01*
X2328418Y14903450D01*
D24*
G75*
G01*
X2175020Y15225840D02*
G03*
X2190260Y15241080I0J15240D01*
G75*
G01*
X2190260Y15391320D02*
G03*
X2175020Y15406560I-15240J0D01*
G75*
G01*
X1812780Y15225840D02*
G02*
X1797540Y15241080I0J15240D01*
G75*
G01*
X1797540Y15391320D02*
G02*
X1812780Y15406560I15240J0D01*
D10*
G75*
G01*
X3301149Y14239161D02*
G02*
X3332132Y14270144I30983J0D01*
G75*
G01*
X3332132Y14128179D02*
G02*
X3301149Y14159164I0J30982D01*
G75*
G01*
X3549719Y14269563D02*
G02*
X3580701Y14238577I0J-30983D01*
G75*
G01*
X3580701Y14158580D02*
G02*
X3549719Y14127597I-30982J0D01*
G75*
G01*
X2885361Y14936051D02*
G02*
X2916344Y14905068I0J-30983D01*
G75*
G01*
X2774378Y14905068D02*
G02*
X2805364Y14936051I30983J0D01*
G75*
G01*
X2915763Y14687481D02*
G02*
X2884777Y14656499I-30983J0D01*
G75*
G01*
X2804780Y14656499D02*
G02*
X2773797Y14687481I0J30982D01*
G75*
G01*
X1853405Y14524932D02*
G02*
X1853405Y14778932I-278561J127000D01*
G75*
G01*
X2328418Y14903450D02*
G03*
X2419929Y14905990I45720J2551D01*
G75*
G01
X2959125Y14363649D02*
G03X2959125Y14363649I-12700J0D01*
M02*
