G04 Layer: Inner1*
G04 EasyEDA v6.4.17, 2021-03-19T16:44:36--7:00*
G04 2dc819ba9ea4424db49a2a786f0bdddf,d6c3d315a7ad4e81bc1a44f6c2ba7827,10*
G04 Gerber Generator version 0.2*
G04 Scale: 100 percent, Rotated: No, Reflected: No *
G04 Dimensions in millimeters *
G04 leading zeros omitted , absolute positions ,4 integer and 5 decimal *
%FSLAX45Y45*%
%MOMM*%

%ADD11C,1.0000*%
%ADD12C,0.6096*%
%ADD13C,0.6100*%
%ADD23C,1.5240*%

%LPD*%
G36*
X1835404Y12008612D02*
G01*
X1772818Y12010593D01*
X1710283Y12014606D01*
X1647901Y12020550D01*
X1585772Y12028474D01*
X1523898Y12038380D01*
X1462379Y12050268D01*
X1401267Y12064034D01*
X1340612Y12079782D01*
X1280515Y12097461D01*
X1221028Y12117019D01*
X1162151Y12138456D01*
X1103985Y12161723D01*
X1046581Y12186869D01*
X990041Y12213793D01*
X934313Y12242495D01*
X879602Y12272975D01*
X825855Y12305131D01*
X773125Y12339015D01*
X721563Y12374524D01*
X671118Y12411710D01*
X621842Y12450419D01*
X573887Y12490704D01*
X527151Y12532461D01*
X481838Y12575692D01*
X437896Y12620345D01*
X395376Y12666370D01*
X354380Y12713766D01*
X314858Y12762382D01*
X276910Y12812217D01*
X240588Y12863271D01*
X205892Y12915442D01*
X172872Y12968681D01*
X141528Y13022935D01*
X111963Y13078155D01*
X84124Y13134289D01*
X58115Y13191286D01*
X33934Y13249046D01*
X11582Y13307568D01*
X-8890Y13366800D01*
X-27482Y13426643D01*
X-44196Y13486993D01*
X-58978Y13547902D01*
X-71780Y13609218D01*
X-82651Y13670889D01*
X-91592Y13732916D01*
X-98501Y13795197D01*
X-103479Y13857630D01*
X-106426Y13920216D01*
X-107442Y13982852D01*
X-106426Y14045488D01*
X-103428Y14108074D01*
X-98501Y14170507D01*
X-91541Y14232788D01*
X-82600Y14294815D01*
X-71729Y14356486D01*
X-58877Y14417801D01*
X-44094Y14478711D01*
X-27432Y14539112D01*
X-8788Y14598904D01*
X11684Y14658136D01*
X34036Y14716658D01*
X58267Y14774418D01*
X84277Y14831415D01*
X112115Y14887549D01*
X141681Y14942769D01*
X173024Y14997023D01*
X206044Y15050262D01*
X240792Y15102382D01*
X277114Y15153436D01*
X315061Y15203271D01*
X354584Y15251887D01*
X395579Y15299232D01*
X438099Y15345257D01*
X482092Y15389910D01*
X527405Y15433141D01*
X574090Y15474899D01*
X622096Y15515183D01*
X671372Y15553893D01*
X721817Y15591028D01*
X773430Y15626537D01*
X826109Y15660420D01*
X879856Y15692628D01*
X934618Y15723057D01*
X990295Y15751759D01*
X1046886Y15778683D01*
X1104290Y15803778D01*
X1162456Y15827095D01*
X1221333Y15848482D01*
X1280820Y15868040D01*
X1340967Y15885668D01*
X1401572Y15901416D01*
X1462684Y15915233D01*
X1524203Y15927069D01*
X1586077Y15936976D01*
X1648206Y15944900D01*
X1710588Y15950844D01*
X1773123Y15954806D01*
X1835759Y15956788D01*
X1898396Y15956788D01*
X1960981Y15954806D01*
X2023516Y15950793D01*
X2085898Y15944850D01*
X2148027Y15936925D01*
X2209901Y15927019D01*
X2271420Y15915132D01*
X2332532Y15901365D01*
X2393188Y15885617D01*
X2453284Y15867938D01*
X2512771Y15848380D01*
X2571648Y15826943D01*
X2629814Y15803676D01*
X2687218Y15778530D01*
X2743758Y15751606D01*
X2799486Y15722904D01*
X2854198Y15692424D01*
X2907944Y15660268D01*
X2960674Y15626384D01*
X3012236Y15590875D01*
X3062681Y15553690D01*
X3111957Y15514980D01*
X3159912Y15474696D01*
X3206648Y15432938D01*
X3251962Y15389707D01*
X3295904Y15345054D01*
X3338423Y15299029D01*
X3379419Y15251633D01*
X3418941Y15203017D01*
X3456889Y15153182D01*
X3493211Y15102128D01*
X3527907Y15049957D01*
X3560927Y14996718D01*
X3592271Y14942464D01*
X3621836Y14887244D01*
X3649675Y14831110D01*
X3675684Y14774113D01*
X3699865Y14716353D01*
X3722217Y14657832D01*
X3742690Y14598599D01*
X3761282Y14538756D01*
X3777996Y14478406D01*
X3792778Y14417497D01*
X3805580Y14356181D01*
X3816451Y14294510D01*
X3825392Y14232483D01*
X3832301Y14170202D01*
X3837279Y14107769D01*
X3840226Y14045184D01*
X3841242Y13982547D01*
X3840226Y13919911D01*
X3837228Y13857325D01*
X3832301Y13794841D01*
X3825341Y13732611D01*
X3816400Y13670584D01*
X3805529Y13608913D01*
X3792677Y13547598D01*
X3777894Y13486688D01*
X3761232Y13426287D01*
X3742588Y13366496D01*
X3722115Y13307263D01*
X3699764Y13248741D01*
X3675532Y13190982D01*
X3649522Y13133984D01*
X3621684Y13077850D01*
X3592118Y13022630D01*
X3560775Y12968376D01*
X3527755Y12915138D01*
X3493008Y12863017D01*
X3456686Y12811963D01*
X3418738Y12762128D01*
X3379215Y12713512D01*
X3338220Y12666167D01*
X3295700Y12620142D01*
X3251708Y12575489D01*
X3206394Y12532258D01*
X3159709Y12490500D01*
X3111703Y12450216D01*
X3062427Y12411506D01*
X3011982Y12374372D01*
X2960370Y12338862D01*
X2907690Y12304979D01*
X2853944Y12272772D01*
X2799181Y12242342D01*
X2743504Y12213640D01*
X2686913Y12186716D01*
X2629509Y12161621D01*
X2571343Y12138304D01*
X2512466Y12116917D01*
X2452979Y12097359D01*
X2392832Y12079732D01*
X2332228Y12063984D01*
X2271115Y12050166D01*
X2209596Y12038330D01*
X2147722Y12028424D01*
X2085593Y12020499D01*
X2023211Y12014555D01*
X1960676Y12010593D01*
X1898040Y12008612D01*
G37*

%LPC*%
G36*
X3124200Y12750546D02*
G01*
X3139541Y12751511D01*
X3154629Y12754254D01*
X3169310Y12758826D01*
X3183331Y12765125D01*
X3196488Y12773101D01*
X3208578Y12782550D01*
X3219450Y12793421D01*
X3228898Y12805511D01*
X3236874Y12818668D01*
X3243173Y12832689D01*
X3247745Y12847370D01*
X3250488Y12862458D01*
X3251453Y12877800D01*
X3250488Y12893141D01*
X3247745Y12908229D01*
X3243173Y12922910D01*
X3236874Y12936931D01*
X3228898Y12950088D01*
X3219450Y12962178D01*
X3208578Y12973050D01*
X3196488Y12982498D01*
X3183331Y12990474D01*
X3169310Y12996773D01*
X3154629Y13001345D01*
X3139541Y13004088D01*
X3124200Y13005054D01*
X3108858Y13004088D01*
X3093770Y13001345D01*
X3079089Y12996773D01*
X3065068Y12990474D01*
X3051911Y12982498D01*
X3039821Y12973050D01*
X3028950Y12962178D01*
X3019501Y12950088D01*
X3011525Y12936931D01*
X3005226Y12922910D01*
X3000654Y12908229D01*
X2997911Y12893141D01*
X2996946Y12877800D01*
X2997911Y12862458D01*
X3000654Y12847370D01*
X3005226Y12832689D01*
X3011525Y12818668D01*
X3019501Y12805511D01*
X3028950Y12793421D01*
X3039821Y12782550D01*
X3051911Y12773101D01*
X3065068Y12765125D01*
X3079089Y12758826D01*
X3093770Y12754254D01*
X3108858Y12751511D01*
G37*
G36*
X685800Y12750546D02*
G01*
X701141Y12751511D01*
X716229Y12754254D01*
X730910Y12758826D01*
X744931Y12765125D01*
X758088Y12773101D01*
X770178Y12782550D01*
X781050Y12793421D01*
X790498Y12805511D01*
X798474Y12818668D01*
X804773Y12832689D01*
X809345Y12847370D01*
X812088Y12862458D01*
X813053Y12877800D01*
X812088Y12893141D01*
X809345Y12908229D01*
X804773Y12922910D01*
X798474Y12936931D01*
X790498Y12950088D01*
X781050Y12962178D01*
X770178Y12973050D01*
X758088Y12982498D01*
X744931Y12990474D01*
X730910Y12996773D01*
X716229Y13001345D01*
X701141Y13004088D01*
X685800Y13005054D01*
X670458Y13004088D01*
X655370Y13001345D01*
X640689Y12996773D01*
X626668Y12990474D01*
X613511Y12982498D01*
X601421Y12973050D01*
X590550Y12962178D01*
X581101Y12950088D01*
X573125Y12936931D01*
X566826Y12922910D01*
X562254Y12908229D01*
X559511Y12893141D01*
X558546Y12877800D01*
X559511Y12862458D01*
X562254Y12847370D01*
X566826Y12832689D01*
X573125Y12818668D01*
X581101Y12805511D01*
X590550Y12793421D01*
X601421Y12782550D01*
X613511Y12773101D01*
X626668Y12765125D01*
X640689Y12758826D01*
X655370Y12754254D01*
X670458Y12751511D01*
G37*
G36*
X2517495Y13310209D02*
G01*
X2528976Y13311581D01*
X2540152Y13314629D01*
X2550718Y13319353D01*
X2560421Y13325652D01*
X2569108Y13333374D01*
X2576474Y13342315D01*
X2582367Y13352221D01*
X2586685Y13362990D01*
X2589326Y13374268D01*
X2590241Y13385800D01*
X2589326Y13397331D01*
X2586685Y13408609D01*
X2582367Y13419378D01*
X2576474Y13429284D01*
X2569108Y13438225D01*
X2560421Y13445947D01*
X2550718Y13452246D01*
X2540152Y13456970D01*
X2528976Y13460018D01*
X2517495Y13461390D01*
X2505913Y13460933D01*
X2494584Y13458698D01*
X2483662Y13454786D01*
X2473502Y13449300D01*
X2464308Y13442238D01*
X2456281Y13433907D01*
X2449576Y13424458D01*
X2444445Y13414044D01*
X2440940Y13403021D01*
X2439212Y13391591D01*
X2439212Y13380008D01*
X2440940Y13368578D01*
X2444445Y13357555D01*
X2449576Y13347141D01*
X2456281Y13337692D01*
X2464308Y13329361D01*
X2473502Y13322300D01*
X2483662Y13316813D01*
X2494584Y13312901D01*
X2505913Y13310666D01*
G37*
G36*
X2921000Y13469366D02*
G01*
X2930753Y13470229D01*
X2940202Y13472769D01*
X2949041Y13476884D01*
X2957068Y13482523D01*
X2963976Y13489432D01*
X2969615Y13497458D01*
X2973730Y13506297D01*
X2976270Y13515746D01*
X2977134Y13525500D01*
X2976270Y13535253D01*
X2973730Y13544702D01*
X2969615Y13553541D01*
X2963976Y13561568D01*
X2957068Y13568476D01*
X2949041Y13574115D01*
X2940202Y13578230D01*
X2930753Y13580770D01*
X2921000Y13581634D01*
X2911246Y13580770D01*
X2901797Y13578230D01*
X2892958Y13574115D01*
X2884932Y13568476D01*
X2878023Y13561568D01*
X2872384Y13553541D01*
X2868269Y13544702D01*
X2865729Y13535253D01*
X2864866Y13525500D01*
X2865729Y13515746D01*
X2868269Y13506297D01*
X2872384Y13497458D01*
X2878023Y13489432D01*
X2884932Y13482523D01*
X2892958Y13476884D01*
X2901797Y13472769D01*
X2911246Y13470229D01*
G37*
G36*
X3378200Y13990066D02*
G01*
X3387953Y13990929D01*
X3397402Y13993469D01*
X3406241Y13997584D01*
X3414268Y14003223D01*
X3421176Y14010132D01*
X3426815Y14018158D01*
X3430930Y14026997D01*
X3433470Y14036446D01*
X3434334Y14046200D01*
X3433470Y14055953D01*
X3430930Y14065402D01*
X3426815Y14074241D01*
X3421176Y14082268D01*
X3414268Y14089176D01*
X3406241Y14094815D01*
X3397402Y14098930D01*
X3387953Y14101470D01*
X3378200Y14102334D01*
X3368446Y14101470D01*
X3358997Y14098930D01*
X3350158Y14094815D01*
X3342132Y14089176D01*
X3335223Y14082268D01*
X3329584Y14074241D01*
X3325469Y14065402D01*
X3322929Y14055953D01*
X3322065Y14046200D01*
X3322929Y14036446D01*
X3325469Y14026997D01*
X3329584Y14018158D01*
X3335223Y14010132D01*
X3342132Y14003223D01*
X3350158Y13997584D01*
X3358997Y13993469D01*
X3368446Y13990929D01*
G37*
G36*
X1618437Y14433550D02*
G01*
X1625904Y14437309D01*
X1637131Y14445030D01*
X1647189Y14454124D01*
X1655978Y14464538D01*
X1663293Y14475968D01*
X1665376Y14480489D01*
X1618437Y14480489D01*
G37*
G36*
X1529537Y14433550D02*
G01*
X1529537Y14480489D01*
X1482598Y14480489D01*
X1484680Y14475968D01*
X1491996Y14464538D01*
X1500784Y14454124D01*
X1510893Y14445030D01*
X1522120Y14437309D01*
G37*
G36*
X1482496Y14569389D02*
G01*
X1529537Y14569389D01*
X1529537Y14616430D01*
X1528064Y14615820D01*
X1516380Y14608860D01*
X1505712Y14600428D01*
X1496263Y14590674D01*
X1488186Y14579701D01*
G37*
G36*
X1618437Y14569389D02*
G01*
X1665528Y14569389D01*
X1659839Y14579701D01*
X1651762Y14590674D01*
X1642313Y14600428D01*
X1631645Y14608860D01*
X1619910Y14615820D01*
X1618437Y14616430D01*
G37*
G36*
X3009900Y14663166D02*
G01*
X3019653Y14664029D01*
X3029102Y14666569D01*
X3037941Y14670684D01*
X3045968Y14676323D01*
X3052876Y14683232D01*
X3058515Y14691258D01*
X3062630Y14700097D01*
X3065170Y14709546D01*
X3066034Y14719300D01*
X3065170Y14729053D01*
X3062630Y14738502D01*
X3058515Y14747341D01*
X3052876Y14755368D01*
X3045968Y14762276D01*
X3037941Y14767915D01*
X3029102Y14772030D01*
X3019653Y14774570D01*
X3009900Y14775434D01*
X3000146Y14774570D01*
X2990697Y14772030D01*
X2981858Y14767915D01*
X2973832Y14762276D01*
X2966923Y14755368D01*
X2961284Y14747341D01*
X2957169Y14738502D01*
X2954629Y14729053D01*
X2953766Y14719300D01*
X2954629Y14709546D01*
X2957169Y14700097D01*
X2961284Y14691258D01*
X2966923Y14683232D01*
X2973832Y14676323D01*
X2981858Y14670684D01*
X2990697Y14666569D01*
X3000146Y14664029D01*
G37*
G36*
X1573987Y14677085D02*
G01*
X1587550Y14677999D01*
X1600911Y14680692D01*
X1613763Y14685162D01*
X1625904Y14691309D01*
X1637131Y14699030D01*
X1647189Y14708124D01*
X1655978Y14718538D01*
X1663293Y14729968D01*
X1669034Y14742312D01*
X1673047Y14755317D01*
X1675333Y14768728D01*
X1675790Y14782342D01*
X1674418Y14795855D01*
X1671269Y14809114D01*
X1666392Y14821814D01*
X1659839Y14833701D01*
X1651762Y14844674D01*
X1642313Y14854428D01*
X1631645Y14862860D01*
X1619910Y14869820D01*
X1607413Y14875103D01*
X1594307Y14878710D01*
X1580794Y14880539D01*
X1567180Y14880539D01*
X1553718Y14878710D01*
X1540611Y14875103D01*
X1528064Y14869820D01*
X1516380Y14862860D01*
X1505712Y14854428D01*
X1496263Y14844674D01*
X1488186Y14833701D01*
X1481632Y14821814D01*
X1476756Y14809114D01*
X1473606Y14795855D01*
X1472234Y14782342D01*
X1472692Y14768728D01*
X1474927Y14755317D01*
X1478991Y14742312D01*
X1484680Y14729968D01*
X1491996Y14718538D01*
X1500784Y14708124D01*
X1510893Y14699030D01*
X1522120Y14691309D01*
X1534261Y14685162D01*
X1547114Y14680692D01*
X1560423Y14677999D01*
G37*
G36*
X3124200Y14985746D02*
G01*
X3139541Y14986711D01*
X3154629Y14989454D01*
X3169310Y14994026D01*
X3183331Y15000325D01*
X3196488Y15008301D01*
X3208578Y15017750D01*
X3219450Y15028621D01*
X3228898Y15040711D01*
X3236874Y15053868D01*
X3243173Y15067889D01*
X3247745Y15082570D01*
X3250488Y15097658D01*
X3251453Y15113000D01*
X3250488Y15128341D01*
X3247745Y15143429D01*
X3243173Y15158110D01*
X3236874Y15172131D01*
X3228898Y15185288D01*
X3219450Y15197378D01*
X3208578Y15208250D01*
X3196488Y15217698D01*
X3183331Y15225674D01*
X3169310Y15231973D01*
X3154629Y15236545D01*
X3139541Y15239288D01*
X3124200Y15240254D01*
X3108858Y15239288D01*
X3093770Y15236545D01*
X3079089Y15231973D01*
X3065068Y15225674D01*
X3051911Y15217698D01*
X3039821Y15208250D01*
X3028950Y15197378D01*
X3019501Y15185288D01*
X3011525Y15172131D01*
X3005226Y15158110D01*
X3000654Y15143429D01*
X2997911Y15128341D01*
X2996946Y15113000D01*
X2997911Y15097658D01*
X3000654Y15082570D01*
X3005226Y15067889D01*
X3011525Y15053868D01*
X3019501Y15040711D01*
X3028950Y15028621D01*
X3039821Y15017750D01*
X3051911Y15008301D01*
X3065068Y15000325D01*
X3079089Y14994026D01*
X3093770Y14989454D01*
X3108858Y14986711D01*
G37*
G36*
X685800Y14985746D02*
G01*
X701141Y14986711D01*
X716229Y14989454D01*
X730910Y14994026D01*
X744931Y15000325D01*
X758088Y15008301D01*
X770178Y15017750D01*
X781050Y15028621D01*
X790498Y15040711D01*
X798474Y15053868D01*
X804773Y15067889D01*
X809345Y15082570D01*
X812088Y15097658D01*
X813053Y15113000D01*
X812088Y15128341D01*
X809345Y15143429D01*
X804773Y15158110D01*
X798474Y15172131D01*
X790498Y15185288D01*
X781050Y15197378D01*
X770178Y15208250D01*
X758088Y15217698D01*
X744931Y15225674D01*
X730910Y15231973D01*
X716229Y15236545D01*
X701141Y15239288D01*
X685800Y15240254D01*
X670458Y15239288D01*
X655370Y15236545D01*
X640689Y15231973D01*
X626668Y15225674D01*
X613511Y15217698D01*
X601421Y15208250D01*
X590550Y15197378D01*
X581101Y15185288D01*
X573125Y15172131D01*
X566826Y15158110D01*
X562254Y15143429D01*
X559511Y15128341D01*
X558546Y15113000D01*
X559511Y15097658D01*
X562254Y15082570D01*
X566826Y15067889D01*
X573125Y15053868D01*
X581101Y15040711D01*
X590550Y15028621D01*
X601421Y15017750D01*
X613511Y15008301D01*
X626668Y15000325D01*
X640689Y14994026D01*
X655370Y14989454D01*
X670458Y14986711D01*
G37*

%LPD*%
D23*
G01*
X1574012Y14778939D03*
G01*
X1574012Y14524939D03*
D12*
G01*
X1752498Y14981859D03*
G01*
X2997200Y14859000D03*
G01*
X2654300Y14325600D03*
G01*
X1930400Y14592300D03*
D13*
G01*
X2959100Y14465300D03*
G01*
X2794000Y14135100D03*
G01*
X3517900Y14046200D03*
G01*
X3378200Y14046200D03*
G01*
X2921000Y13525500D03*
D11*
G01*
X2514803Y13199414D03*
D13*
G01*
X3009900Y14719300D03*
D11*
G01*
X2514600Y13385800D03*
M02*
